<?xml version="1.0" standalone="no"?>
<!DOCTYPE svg PUBLIC "-//W3C//DTD SVG 20010904//EN"
 "http://www.w3.org/TR/2001/REC-SVG-20010904/DTD/svg10.dtd">
<svg version="1.0" xmlns="http://www.w3.org/2000/svg"
 width="281.000000pt" height="281.000000pt" viewBox="0 0 281.000000 281.000000"
 preserveAspectRatio="xMidYMid meet">
<metadata>
Created by potrace 1.14, written by Peter Selinger 2001-2017
</metadata>
<g transform="translate(0.000000,281.000000) scale(0.100000,-0.100000)"
fill="#000000" stroke="none">
<path d="M0 2457 c0 -339 1 -354 21 -392 l21 -40 -6 40 -6 40 15 -28 c9 -15
14 -31 11 -36 -3 -4 1 -8 8 -8 9 0 12 7 8 16 -5 13 -3 14 10 3 9 -7 14 -21 11
-33 -4 -14 -1 -18 10 -14 10 4 17 -2 22 -22 3 -15 15 -36 26 -46 10 -10 19
-25 20 -35 0 -11 2 -12 6 -4 4 10 8 10 19 1 11 -9 14 -7 14 14 0 13 -7 40 -15
58 l-16 34 6 -35 6 -35 -16 34 c-25 56 -19 66 20 32 34 -30 74 -46 47 -19 -7
7 -12 18 -12 26 0 11 3 12 14 3 11 -9 16 -9 21 0 4 6 3 14 -2 18 -5 3 -6 20
-2 36 l6 30 10 -25 10 -25 8 25 c5 15 4 25 -4 28 -6 2 -11 11 -11 20 1 15 2
15 11 0 15 -27 25 -22 53 24 22 37 23 44 10 62 -21 31 -16 44 7 17 l19 -24 35
39 c19 21 34 42 35 46 0 4 10 17 23 29 l22 22 -23 -6 c-18 -4 -25 0 -33 19 -5
14 -9 27 -9 30 0 2 20 4 45 4 27 0 45 -5 45 -11 0 -7 19 5 42 25 24 20 69 54
101 77 31 22 57 44 57 48 0 5 -16 35 -35 67 -19 32 -35 63 -35 68 0 6 13 -11
28 -39 58 -104 44 -99 139 -48 45 24 118 57 160 73 78 28 242 67 302 72 29 2
43 22 21 30 -6 2 -12 14 -15 27 -2 14 -10 29 -16 35 -9 8 -10 7 -4 -4 6 -12 5
-13 -6 -2 -18 17 -25 15 -25 -7 0 -11 3 -18 7 -15 4 2 13 -4 20 -13 12 -14 12
-16 0 -8 -11 6 -13 4 -8 -8 8 -21 0 -22 -20 -2 -8 9 -13 22 -10 29 9 23 -15
36 -65 36 -52 0 -53 -1 -37 -33 10 -21 10 -21 -5 -3 -9 11 -16 23 -16 28 0 4
-15 8 -34 8 -28 0 -35 -4 -39 -22 l-4 -23 -2 22 -1 22 -510 1 -510 0 0 -353z
m370 218 c14 -19 14 -19 -2 -6 -10 7 -18 18 -18 24 0 6 1 8 3 6 1 -2 9 -13 17
-24z m-83 -17 c-3 -8 -6 -5 -6 6 -1 11 2 17 5 13 3 -3 4 -12 1 -19z m32 -24
c1 13 41 -35 41 -50 0 -7 6 -15 13 -17 6 -3 2 -6 -11 -6 -17 -1 -24 6 -28 29
-4 16 -10 28 -14 25 -9 -6 -20 20 -19 43 1 10 4 7 9 -8 4 -14 8 -21 9 -16z
m-101 0 c0 -18 -3 -22 -9 -13 -11 18 -11 39 0 39 5 0 9 -12 9 -26z m51 -32
l20 -28 -21 -13 c-27 -17 -38 -3 -13 16 19 15 19 15 -5 10 -24 -6 -24 -5 -6 8
18 13 15 20 -6 16 -5 0 -8 4 -8 9 0 19 19 10 39 -18z m41 -52 c0 -5 -4 -10 -9
-10 -5 0 -18 -3 -28 -6 -16 -5 -16 -4 1 10 23 18 36 20 36 6z m60 -10 c0 -5
-2 -10 -4 -10 -3 0 -8 5 -11 10 -3 6 -1 10 4 10 6 0 11 -4 11 -10z m40 -5 c0
-2 -10 -9 -22 -15 -22 -11 -22 -10 -4 4 21 17 26 19 26 11z m-90 -14 c0 -9
-41 -23 -49 -16 -3 4 28 20 47 24 1 1 2 -3 2 -8z m119 -25 c-10 -10 -59 -17
-59 -9 0 15 44 32 54 22 5 -5 8 -11 5 -13z m19 -21 c-2 -3 -20 -7 -39 -10
l-34 -5 35 14 c32 12 50 13 38 1z m-123 -5 c-3 -5 -14 -10 -23 -10 -15 0 -15
2 -2 10 20 13 33 13 25 0z m155 -14 c0 -17 -22 -26 -62 -26 -36 0 -30 10 15
27 43 15 47 15 47 -1z m14 -44 c16 -18 14 -19 -34 -21 -57 -2 -66 11 -17 27
17 5 32 10 33 11 0 1 8 -7 18 -17z m-141 -19 c-7 -2 -21 -2 -30 0 -10 3 -4 5
12 5 17 0 24 -2 18 -5z m21 -29 c9 -23 8 -24 -18 -24 -28 0 -43 27 -18 33 29
8 30 7 36 -9z m34 -69 c-6 -6 -58 8 -58 16 0 4 14 3 31 -3 16 -6 29 -12 27
-13z m-190 -102 c-2 -10 -10 -1 -21 23 l-19 39 22 -23 c12 -12 20 -30 18 -39z
m82 -42 c-1 -13 -29 45 -29 59 0 8 6 0 14 -19 8 -18 15 -36 15 -40z m-136 1
c-22 -5 -31 7 -14 18 9 6 17 5 22 -3 4 -7 1 -13 -8 -15z m96 -10 c0 -7 -4 -10
-10 -7 -5 3 -10 16 -10 28 0 18 2 19 10 7 5 -8 10 -21 10 -28z m-140 -10 c0
-15 -2 -15 -10 -2 -13 20 -13 33 0 25 6 -3 10 -14 10 -23z m-60 -53 c0 -6 -4
-7 -10 -4 -5 3 -10 13 -10 21 0 8 -7 17 -15 20 -8 4 -15 11 -15 18 1 13 50
-41 50 -55z m118 -2 c12 -18 22 -37 22 -41 0 -11 -60 56 -60 67 0 16 16 5 38
-26z m-71 -19 c-3 -8 -6 -5 -6 6 -1 11 2 17 5 13 3 -3 4 -12 1 -19z m33 -36
c0 -15 -2 -15 -10 -2 -13 20 -13 33 0 25 6 -3 10 -14 10 -23z"/>
<path d="M1341 2787 c6 -10 17 -21 25 -24 20 -7 18 -33 -3 -33 -14 0 -15 2 -5
9 11 7 11 9 -2 14 -10 4 -16 1 -16 -9 0 -12 -2 -12 -14 -2 -7 7 -11 19 -9 26
4 8 0 10 -11 6 -14 -5 -14 -8 2 -30 14 -19 26 -23 64 -24 36 0 46 3 42 14 -4
10 3 13 26 10 19 -2 29 0 25 6 -10 16 1 11 16 -7 10 -11 10 -14 2 -9 -7 4 -13
2 -13 -3 0 -6 3 -11 8 -12 4 0 19 -3 34 -5 32 -5 45 11 26 33 -11 15 -11 16 5
10 9 -3 17 -2 17 4 0 6 5 7 10 4 6 -4 7 -12 3 -18 -4 -8 -1 -7 9 1 14 11 18
10 27 -7 16 -30 12 -40 -4 -11 -12 21 -14 22 -15 6 0 -12 -5 -16 -15 -12 -8 3
-15 2 -15 -3 0 -4 39 -16 88 -25 48 -9 96 -19 107 -22 12 -3 29 3 43 16 25 23
30 16 7 -10 -13 -15 -10 -18 38 -35 28 -10 72 -27 97 -37 l44 -19 -32 -21
c-62 -39 -23 -30 55 13 66 36 88 43 143 45 l65 2 -90 -23 c-49 -13 -93 -24
-97 -24 -18 -2 -6 -20 23 -34 l31 -15 -46 -31 c-25 -18 -46 -37 -46 -43 0 -6
8 -4 18 5 10 10 23 17 28 17 5 0 -2 -9 -15 -19 -14 -10 -31 -16 -40 -13 -9 3
-12 1 -7 -6 3 -6 -7 -18 -24 -29 -17 -9 -42 -35 -56 -56 l-25 -38 55 37 c31
20 53 40 50 45 -10 17 42 32 65 19 18 -9 27 -8 47 5 14 9 31 14 37 12 7 -3 -3
-11 -21 -17 -26 -10 -31 -15 -20 -22 9 -6 6 -7 -9 -3 -30 8 -99 -28 -145 -77
-21 -21 -38 -41 -38 -43 0 -3 28 13 63 35 78 49 164 90 180 86 7 -1 8 -1 4 2
-4 2 13 15 38 29 26 13 49 22 53 19 3 -3 -1 -6 -9 -6 -11 0 -11 -2 -1 -9 10
-6 3 -13 -23 -25 -47 -22 -40 -31 8 -11 44 18 50 19 45 4 -2 -7 -15 -13 -29
-15 -14 -1 -56 -21 -92 -43 -37 -22 -99 -58 -138 -78 -103 -54 -110 -59 -101
-68 4 -4 -6 -5 -23 -1 -35 9 -45 17 -29 23 9 3 9 16 -1 51 -18 70 -48 123
-101 178 -49 52 -48 45 6 -23 20 -26 30 -48 26 -58 -3 -9 -2 -13 4 -10 10 6
18 -9 35 -64 5 -18 4 -22 -6 -16 -7 5 -5 -2 4 -16 23 -32 21 -129 -2 -115 -3
2 -5 -14 -3 -36 3 -22 -1 -45 -7 -51 -6 -6 -11 -20 -11 -32 0 -13 -3 -16 -8
-8 -4 7 -9 -12 -10 -43 -2 -38 1 -53 8 -49 6 4 17 -1 25 -11 11 -16 9 -21 -17
-40 -17 -13 -37 -20 -45 -17 -12 5 -14 1 -8 -15 8 -27 0 -28 -32 -2 -30 24
-60 26 -83 5 -23 -21 -125 -45 -190 -45 -71 0 -142 21 -200 60 -25 16 -55 30
-67 30 -31 0 -183 -154 -183 -186 0 -13 4 -24 9 -24 5 0 17 -14 26 -32 15 -30
14 -34 -3 -58 -15 -21 -88 -231 -138 -401 l-15 -49 -44 0 -44 0 -25 83 c-13
45 -30 102 -37 127 -7 25 -15 48 -18 52 -4 4 -24 -53 -46 -127 l-39 -135 -42
0 c-24 0 -44 5 -47 13 -2 6 -37 110 -76 230 -40 119 -75 217 -77 217 -3 0 -2
-9 1 -20 4 -12 2 -20 -5 -20 -6 0 -8 -5 -5 -10 4 -6 10 -8 15 -5 8 5 26 -61
21 -79 -1 -5 3 -12 9 -16 6 -4 12 -21 12 -38 1 -17 5 -29 10 -26 4 3 8 1 8 -5
0 -5 3 -17 7 -27 5 -13 3 -15 -8 -9 -10 7 -9 1 4 -18 9 -14 17 -33 17 -42 0
-8 5 -15 10 -15 6 0 10 -10 10 -22 0 -27 25 -100 31 -94 3 3 6 -5 6 -17 1 -12
-1 -17 -5 -11 -4 6 -14 13 -23 16 -9 4 -19 21 -22 40 -12 61 -33 129 -40 129
-24 1 -30 -8 -19 -27 11 -18 11 -18 12 5 0 13 3 22 6 18 3 -3 3 -25 -1 -48 -7
-38 -9 -41 -20 -25 -8 10 -16 13 -19 7 -4 -5 -2 -12 4 -16 5 -3 10 -11 10 -17
0 -7 -6 -6 -15 2 -8 7 -15 19 -15 27 0 8 -11 29 -24 46 -13 18 -28 57 -34 87
l-10 55 -1 -44 c-1 -49 38 -183 51 -175 4 3 8 0 8 -6 0 -36 116 -153 178 -181
18 -8 32 -17 32 -20 0 -3 -23 -25 -50 -48 -28 -23 -50 -51 -50 -61 0 -17 10
-46 70 -205 10 -27 29 -78 42 -112 l24 -62 47 37 c47 37 49 42 33 97 -5 15 4
28 36 52 l42 31 28 -19 c28 -20 28 -20 56 -1 42 31 67 61 56 71 -5 5 -67 46
-139 91 -132 83 -163 106 -154 114 3 3 23 1 44 -5 22 -6 63 -9 93 -7 48 4 55
2 64 -18 20 -44 63 -52 147 -28 19 6 22 3 20 -11 -3 -15 -45 -45 -84 -59 -5
-2 3 -17 19 -34 l28 -31 44 28 c90 56 121 142 69 191 -21 20 -31 22 -82 17
-47 -4 -54 -3 -39 6 11 7 34 25 53 41 31 26 36 27 64 16 25 -11 40 -11 81 -1
27 7 52 11 55 7 10 -9 -20 -38 -54 -53 -39 -16 -40 -20 -8 -55 22 -26 25 -27
52 -13 15 8 35 15 43 14 9 0 6 -5 -7 -11 -13 -6 -23 -17 -23 -25 0 -7 -6 -13
-13 -13 -8 0 -20 -12 -28 -27 -8 -16 -20 -33 -27 -38 -17 -13 -53 -181 -46
-210 3 -13 1 -26 -5 -29 -12 -8 -12 -7 -15 41 -2 42 -16 55 -16 15 0 -53 21
-134 51 -197 26 -57 112 -166 127 -163 9 2 62 -20 62 -26 0 -2 -10 -2 -22 0
-49 10 50 -35 112 -51 104 -27 175 -16 308 48 63 30 162 161 162 214 0 12 5
23 12 25 7 3 11 40 12 114 0 89 -4 120 -22 169 -26 69 -26 68 -10 59 8 -5 9
-2 5 9 -3 10 -3 17 2 17 5 0 35 27 67 60 32 33 65 60 73 60 8 0 35 -10 60 -22
40 -20 61 -23 166 -22 105 1 125 4 160 23 153 86 222 191 232 351 7 121 -30
252 -89 314 -46 48 -49 58 -31 114 9 29 20 52 25 52 4 0 8 8 8 18 0 9 7 37 16
62 11 31 14 63 10 103 -3 34 -2 56 3 52 5 -3 13 24 16 60 4 36 11 65 15 65 4
0 5 21 2 48 -5 52 6 52 18 0 7 -31 8 -30 10 17 0 28 5 68 10 90 6 29 7 17 4
-45 -3 -47 -1 -112 4 -145 l10 -60 1 55 c0 30 5 80 10 110 8 45 9 32 6 -75 -1
-71 -8 -160 -15 -196 -12 -62 -12 -68 14 -131 14 -37 32 -90 40 -120 8 -29 15
-44 16 -33 1 16 4 14 15 -10 l14 -30 2 40 c2 38 2 38 6 7 5 -38 23 -33 24 6
l1 27 8 -25 c5 -17 8 -19 9 -7 1 9 6 17 12 17 7 0 18 -8 25 -17 11 -15 13 73
14 535 l0 552 -470 0 c-258 -1 -470 -5 -470 -9 0 -5 -7 -12 -16 -15 -14 -5
-15 -4 -5 8 18 21 -177 23 -219 1 -16 -9 -30 -11 -30 -6 0 5 8 12 18 14 9 3
-4 5 -30 6 -41 1 -47 -1 -42 -16 5 -17 5 -17 -9 0 -11 13 -29 17 -77 17 -60 0
-62 -1 -57 -22 l6 -23 -18 22 c-23 28 -64 28 -50 0z m763 2 c-5 -9 1 -10 22
-5 21 5 25 4 14 -4 -22 -15 -50 -12 -50 5 0 8 5 15 11 15 5 0 7 -5 3 -11z m99
4 c-7 -2 -21 -2 -30 0 -10 3 -4 5 12 5 17 0 24 -2 18 -5z m-495 -38 c-3 -3 -9
2 -12 12 -6 14 -5 15 5 6 7 -7 10 -15 7 -18z m314 2 c-7 -8 -8 -18 -4 -22 4
-5 1 -5 -5 -1 -8 4 -13 2 -13 -5 0 -7 -3 -10 -6 -6 -6 6 28 58 35 51 2 -2 -1
-10 -7 -17z m38 14 c0 -5 -6 -14 -14 -20 -12 -10 -13 -8 -9 8 5 21 23 30 23
12z m165 -11 l-40 -7 40 -3 c46 -3 108 -17 84 -19 -71 -5 -228 -23 -244 -28
-18 -5 -19 -4 -5 12 14 17 13 17 -10 12 -15 -4 -11 0 10 9 41 19 109 32 165
31 l40 0 -40 -7z m-411 -16 c3 -8 2 -12 -4 -9 -6 3 -10 10 -10 16 0 14 7 11
14 -7z m118 -14 c-22 -26 -24 -25 -10 5 6 13 15 22 19 19 5 -2 1 -14 -9 -24z
m-192 -34 c0 -6 -7 -2 -15 8 -8 11 -15 25 -15 30 0 6 7 2 15 -8 8 -11 15 -25
15 -30z m203 2 c-5 -23 -5 -23 10 -3 14 17 16 18 17 3 0 -9 6 -19 13 -21 7 -4
5 -6 -5 -7 -10 -2 -23 -3 -29 -4 -6 0 -17 -10 -25 -20 -18 -26 -18 -8 1 38 17
41 26 47 18 14z m385 -5 c-10 -2 -26 -2 -35 0 -10 3 -2 5 17 5 19 0 27 -2 18
-5z m-81 -9 c-3 -3 -12 -4 -19 -1 -8 3 -5 6 6 6 11 1 17 -2 13 -5z m-44 -11
c-7 -2 -19 -2 -25 0 -7 3 -2 5 12 5 14 0 19 -2 13 -5z m574 -25 c-3 -8 -6 -5
-6 6 -1 11 2 17 5 13 3 -3 4 -12 1 -19z m-757 -42 c0 -2 -7 -7 -16 -10 -8 -3
-12 -2 -9 4 6 10 25 14 25 6z m490 -41 c-7 -8 -17 -15 -23 -15 -6 0 -2 8 9 19
22 21 33 19 14 -4z m-340 -25 c-39 -21 -50 -24 -50 -12 0 4 15 13 33 19 50 16
55 14 17 -7z m269 -49 c-7 -10 -21 -24 -33 -31 -20 -12 -20 -12 -6 6 14 17 41
43 48 44 1 0 -3 -8 -9 -19z m346 -386 c4 -77 5 -138 2 -135 -3 3 -7 35 -9 73
-1 37 -7 67 -12 67 -5 0 -6 -25 -2 -57 3 -32 8 -94 11 -138 4 -73 3 -75 -5
-25 -28 175 -60 460 -58 515 1 39 1 38 7 -10 7 -49 7 -49 15 35 l9 85 17 -135
c10 -74 21 -198 25 -275z m-710 375 c-3 -5 -12 -10 -18 -10 -7 0 -6 4 3 10 19
12 23 12 15 0z m20 -20 c-54 -32 -65 -35 -65 -20 0 6 8 10 18 10 9 0 31 9 47
20 17 11 35 20 40 20 6 0 -12 -14 -40 -30z m89 -11 c-3 -5 -14 -9 -26 -9 -17
0 -18 3 -8 14 12 15 44 10 34 -5z m423 -31 c-3 -8 -6 -5 -6 6 -1 11 2 17 5 13
3 -3 4 -12 1 -19z m-190 -40 l-5 -53 13 50 c18 69 18 43 -1 -83 -20 -138 -21
-140 -39 -116 -17 22 -19 60 -5 69 6 4 9 12 8 18 -3 16 24 167 30 167 2 0 2
-24 -1 -52z m-36 9 c-10 -9 -11 -8 -5 6 3 10 9 15 12 12 3 -3 0 -11 -7 -18z
m-412 9 c-2 -2 -15 -9 -29 -15 -24 -11 -24 -11 -6 3 16 13 49 24 35 12z m91
-16 c-8 -5 -19 -10 -25 -10 -5 0 -3 5 5 10 8 5 20 10 25 10 6 0 3 -5 -5 -10z
m185 -19 c-6 -4 -58 -41 -117 -80 -60 -40 -108 -77 -108 -83 0 -5 17 3 38 19
36 28 63 46 120 79 l27 16 -27 -25 c-15 -14 -24 -28 -20 -31 3 -4 0 -5 -8 -2
-8 3 -28 -6 -45 -20 l-30 -26 32 16 c48 24 53 19 10 -9 -20 -14 -37 -28 -37
-32 0 -3 7 0 15 7 25 21 38 0 13 -21 -22 -19 -22 -19 11 0 36 21 61 15 61 -16
0 -8 4 -12 9 -9 13 9 23 -26 11 -38 -7 -7 -10 -6 -10 2 0 7 -6 12 -14 12 -23
0 -37 24 -23 40 6 7 -4 1 -24 -13 -20 -15 -40 -27 -46 -27 -5 0 -19 -13 -31
-30 -14 -19 -58 -47 -117 -76 -52 -25 -95 -52 -95 -59 0 -18 32 -27 65 -19 23
6 33 1 59 -27 41 -45 66 -85 66 -104 0 -27 -21 -16 -74 40 -47 50 -56 55 -94
55 -46 0 -64 19 -42 45 7 9 10 25 6 41 -7 27 10 87 23 80 3 -2 7 12 9 32 3 42
35 75 66 68 23 -6 66 21 66 41 0 8 4 12 9 9 4 -3 28 10 52 29 41 31 188 124
199 125 2 0 0 -4 -5 -9z m64 -23 c-9 -16 -14 -19 -17 -9 -2 7 2 17 9 22 20 13
21 11 8 -13z m175 -77 c-4 -50 -11 -91 -15 -91 -5 0 -9 8 -9 17 0 27 24 173
28 169 1 -2 0 -45 -4 -95z m-117 57 c-3 -7 -5 -2 -5 12 0 14 2 19 5 13 2 -7 2
-19 0 -25z m76 -85 c-3 -43 -10 -82 -15 -88 -7 -7 -8 7 -4 40 19 146 27 168
19 48z m62 -53 l-15 -45 6 40 c3 22 8 60 12 85 l7 45 3 -40 c1 -22 -4 -60 -13
-85z m142 28 c-3 -7 -5 -2 -5 12 0 14 2 19 5 13 2 -7 2 -19 0 -25z m-507 -8
c0 -5 -2 -10 -4 -10 -3 0 -8 5 -11 10 -3 6 -1 10 4 10 6 0 11 -4 11 -10z
m-190 -20 c0 -5 -5 -10 -11 -10 -5 0 -7 5 -4 10 3 6 8 10 11 10 2 0 4 -4 4
-10z m310 -67 c0 4 11 -3 25 -17 25 -26 29 -43 19 -83 -7 -24 -24 -32 -24 -12
0 7 -8 19 -18 28 -38 35 -43 47 -32 77 9 23 13 25 20 14 6 -8 10 -11 10 -7z
m226 -103 c-9 -70 -51 -229 -70 -265 -9 -17 -16 -36 -16 -42 0 -7 -3 -13 -8
-13 -4 0 -7 27 -7 59 0 33 2 55 6 50 6 -11 20 120 18 180 0 24 -6 9 -15 -44
-8 -44 -24 -111 -36 -150 -12 -38 -22 -74 -22 -78 -1 -5 -10 -15 -21 -23 -17
-13 -18 -16 -5 -24 21 -13 12 -12 -35 5 -22 8 -34 14 -27 15 6 0 11 3 10 8 -2
4 2 8 7 9 6 0 9 -3 7 -9 -1 -5 7 -7 20 -3 28 9 25 4 32 45 3 19 3 29 0 23 -8
-19 -37 -16 -30 2 3 8 -2 21 -10 30 -8 8 -13 18 -11 22 3 5 8 25 11 46 3 21
12 45 20 53 20 19 39 81 33 105 -5 18 -2 19 37 14 32 -5 50 -2 77 13 19 12 36
21 38 21 2 1 1 -22 -3 -49z m-353 -23 c2 -7 0 -23 -5 -36 -8 -23 -9 -23 -28
-6 -19 17 -26 45 -14 57 8 9 42 -2 47 -15z m72 -87 c15 -16 32 -27 37 -24 15
9 8 -9 -30 -86 -37 -76 -59 -93 -82 -65 -7 8 -20 15 -29 16 -12 0 -9 5 9 17
14 9 37 30 52 46 l27 29 -20 25 c-19 25 -25 53 -12 65 11 12 18 8 48 -23z
m463 -105 c0 -16 -2 -15 -8 5 -11 34 -11 60 0 35 5 -11 8 -29 8 -40z m-1439
-14 c64 -41 131 -61 201 -61 56 0 60 -2 60 -23 0 -13 6 -29 12 -35 10 -10 10
-17 0 -32 -10 -17 -9 -25 10 -50 24 -33 29 -35 46 -18 9 9 24 -1 65 -45 45
-49 58 -57 88 -57 l36 0 7 -69 c8 -93 49 -196 73 -187 10 4 13 -6 11 -39 -1
-46 -18 -72 -38 -60 -16 10 -33 -5 -21 -19 7 -9 4 -17 -11 -30 -18 -16 -20
-16 -15 -2 4 9 3 16 -2 16 -15 0 -32 -27 -26 -41 3 -8 -5 -20 -17 -28 -23 -14
-23 -14 -4 8 18 20 10 31 -9 12 -6 -5 -29 -11 -52 -13 -37 -3 -40 -2 -28 12
12 13 10 15 -15 17 -16 1 -43 9 -59 18 -19 9 -56 15 -99 15 -77 0 -143 -17
-120 -31 8 -6 1 -9 -22 -9 -19 0 -44 -7 -54 -15 -35 -26 -37 -16 -6 27 42 57
41 107 -1 142 -35 30 -47 31 -95 11 -37 -15 -59 -12 -48 7 4 5 22 16 40 24 19
8 34 18 34 22 0 4 -13 21 -28 37 -33 35 -45 62 -32 70 5 3 8 11 6 18 -1 7 -1
9 1 6 2 -3 17 -4 32 -1 60 8 92 70 55 106 -20 20 -48 20 -79 0 -24 -16 -25
-15 -25 4 0 12 -4 23 -9 26 -5 3 -12 20 -15 38 -3 18 -17 51 -29 73 l-23 40
70 73 c39 39 75 72 80 72 5 0 30 -13 55 -29z m1548 -23 c-3 -8 -6 -5 -6 6 -1
11 2 17 5 13 3 -3 4 -12 1 -19z m-1064 -23 c16 -20 32 -33 37 -30 5 3 12 -7
16 -22 10 -48 25 -81 45 -99 10 -9 19 -21 19 -26 0 -5 -11 3 -24 19 -24 28
-24 28 -45 9 -21 -19 -22 -19 -47 5 -41 38 -48 58 -29 79 18 20 11 44 -20 70
-13 11 -18 10 -33 -4 -22 -19 -32 -20 -32 -3 0 13 41 34 70 36 8 1 28 -15 43
-34z m387 -15 c0 -5 -5 -10 -11 -10 -5 0 -7 5 -4 10 3 6 8 10 11 10 2 0 4 -4
4 -10z m-38 -32 c-9 -9 -15 -9 -24 0 -9 9 -7 12 12 12 19 0 21 -3 12 -12z m61
-5 c-7 -2 -21 -2 -30 0 -10 3 -4 5 12 5 17 0 24 -2 18 -5z m104 -22 c30 -1 51
-9 74 -28 18 -16 30 -23 27 -17 -4 6 3 10 16 10 20 0 23 -5 20 -33 -1 -18 1
-35 6 -38 12 -8 21 24 14 53 -4 15 -3 24 1 20 11 -10 14 -89 4 -82 -5 3 -9 -1
-9 -8 0 -7 -7 -2 -16 10 -8 12 -12 26 -9 32 3 5 2 17 -3 26 -8 15 -10 15 -15
0 -4 -10 -3 -15 1 -12 12 7 13 -85 1 -121 -6 -18 -24 -44 -41 -58 -29 -25 -30
-27 -12 -40 10 -7 23 -11 28 -8 5 4 6 1 2 -5 -5 -8 24 -95 61 -179 4 -10 -10
-13 -54 -13 l-59 0 -17 69 c-23 89 -52 121 -107 121 l-40 0 0 -95 0 -95 -50 0
-50 0 0 239 c0 132 2 245 5 253 4 10 24 12 93 6 48 -3 106 -7 129 -7z m256 -2
c16 -22 11 -63 -5 -53 -5 4 -7 15 -5 26 3 11 0 21 -9 25 -8 3 -14 9 -14 14 0
16 19 10 33 -12z m21 -74 c-6 -25 10 -36 19 -12 4 7 6 8 6 1 1 -6 -6 -17 -14
-24 -11 -9 -15 -9 -15 -1 0 7 -4 10 -10 6 -5 -3 -5 7 1 25 13 36 22 40 13 5z
m-1444 -66 c0 -10 -9 -23 -20 -29 -14 -7 -20 -7 -20 0 0 5 7 10 15 10 8 0 15
5 15 10 0 6 -4 10 -9 10 -5 0 -11 8 -13 18 -2 9 -10 -11 -17 -46 -15 -66 -33
-94 -29 -43 1 16 5 28 9 25 4 -2 11 16 14 41 5 30 12 45 22 45 12 0 13 3 4 13
-6 8 -8 17 -4 21 8 8 33 -49 33 -75z m1327 -31 c-3 -8 -6 -5 -6 6 -1 11 2 17
5 13 3 -3 4 -12 1 -19z m150 -35 c-3 -10 -5 -2 -5 17 0 19 2 27 5 18 2 -10 2
-26 0 -35z m-1475 -47 c-3 -68 -34 -156 -54 -156 -13 0 -9 17 7 34 8 8 15 17
15 20 0 3 -7 6 -15 6 -17 0 -20 32 -5 61 8 14 7 19 -1 19 -7 0 -10 2 -7 5 12
12 37 -9 41 -33 2 -15 4 -1 4 31 0 43 -3 54 -10 42 -8 -14 -11 -15 -18 -4 -18
29 -7 44 37 45 7 1 9 -24 6 -70z m724 -9 c0 -39 -1 -61 -4 -47 -2 14 -8 29
-13 35 -10 10 -12 68 -2 78 15 15 18 4 19 -66z m598 47 c4 -10 2 -13 -6 -8 -8
5 -9 1 -4 -12 5 -14 4 -16 -4 -8 -6 6 -8 18 -4 27 8 21 10 21 18 1z m-1415
-80 l-21 -39 7 35 c4 19 12 38 18 42 19 11 18 4 -4 -38z m-254 -127 c10 -38
10 -45 -1 -36 -7 6 -14 25 -16 42 -2 19 -8 31 -15 30 -7 -2 -13 -1 -13 2 0 3
6 14 13 25 11 19 12 19 16 3 2 -10 9 -39 16 -66z m220 31 l-5 -43 14 40 c13
35 15 37 15 13 1 -15 -3 -38 -9 -52 -6 -16 -6 -27 1 -31 14 -9 1 -25 -22 -25
-11 0 -22 7 -26 15 -8 22 6 33 18 15 8 -11 9 -5 4 22 -5 34 1 88 11 88 2 0 2
-19 -1 -42z m875 7 c0 -5 -5 -3 -10 5 -5 8 -10 20 -10 25 0 6 5 3 10 -5 5 -8
10 -19 10 -25z m574 -5 l7 -25 -15 25 c-17 28 -21 50 -7 35 5 -6 12 -21 15
-35z m-557 -2 c-3 -8 -6 -5 -6 6 -1 11 2 17 5 13 3 -3 4 -12 1 -19z m-850 -20
c-3 -7 -5 -2 -5 12 0 14 2 19 5 13 2 -7 2 -19 0 -25z m1243 22 c0 -5 -2 -10
-4 -10 -3 0 -8 5 -11 10 -3 6 -1 10 4 10 6 0 11 -4 11 -10z m-1797 -40 c12
-62 22 -86 44 -103 13 -10 23 -23 23 -28 0 -6 -15 4 -32 20 -18 17 -36 31 -40
31 -5 0 -8 26 -8 57 0 58 5 67 13 23z m267 15 c0 -8 -4 -15 -10 -15 -5 0 -10
7 -10 15 0 8 5 15 10 15 6 0 10 -7 10 -15z m301 -38 c-10 -9 -11 -8 -5 6 3 10
9 15 12 12 3 -3 0 -11 -7 -18z m1165 -37 c0 -11 -1 -20 -2 -20 -1 0 -9 3 -18
6 -12 5 -13 9 -3 20 17 19 23 17 23 -6z m-1436 -16 c0 -2 -7 -4 -15 -4 -8 0
-15 4 -15 10 0 5 7 7 15 4 8 -4 15 -8 15 -10z m22 -9 c3 -14 1 -28 -3 -31 -5
-3 -9 9 -9 25 0 38 6 40 12 6z m1673 15 c3 -5 1 -10 -4 -10 -6 0 -11 5 -11 10
0 6 2 10 4 10 3 0 8 -4 11 -10z m-1782 -20 c-3 -12 -8 -19 -11 -16 -5 6 5 36
12 36 2 0 2 -9 -1 -20z m1297 -30 c0 -5 -5 -10 -11 -10 -5 0 -7 5 -4 10 3 6 8
10 11 10 2 0 4 -4 4 -10z m177 4 c-3 -3 -12 -4 -19 -1 -8 3 -5 6 6 6 11 1 17
-2 13 -5z m23 -14 c0 -5 -5 -10 -11 -10 -5 0 -7 5 -4 10 3 6 8 10 11 10 2 0 4
-4 4 -10z m217 4 c-3 -3 -12 -4 -19 -1 -8 3 -5 6 6 6 11 1 17 -2 13 -5z
m-1797 -27 c11 -5 9 -6 -4 -4 -11 1 -21 9 -23 17 -3 10 -2 11 4 4 4 -6 15 -14
23 -17z m70 13 c0 -5 -4 -10 -10 -10 -5 0 -10 5 -10 10 0 6 5 10 10 10 6 0 10
-4 10 -10z m17 -12 c-3 -8 -6 -5 -6 6 -1 11 2 17 5 13 3 -3 4 -12 1 -19z m110
16 c-3 -3 -12 -4 -19 -1 -8 3 -5 6 6 6 11 1 17 -2 13 -5z m1093 -3 c0 -5 -7
-12 -16 -15 -14 -5 -15 -4 -4 9 14 17 20 19 20 6z m-1234 -28 c-6 -6 -36 9
-36 18 0 5 9 4 20 -3 10 -7 18 -14 16 -15z m1275 4 c-10 -9 -11 -8 -5 6 3 10
9 15 12 12 3 -3 0 -11 -7 -18z m402 1 c-6 -11 -31 -10 -37 1 -3 5 5 8 18 7 13
0 22 -4 19 -8z m-1566 -15 c-20 -2 -52 -2 -70 0 -17 2 0 4 38 4 39 0 53 -2 32
-4z m1083 -12 c0 -5 -7 -11 -14 -14 -10 -4 -13 -1 -9 9 6 15 23 19 23 5z
m-245 -61 c-27 -12 -43 -12 -25 0 8 5 22 9 30 9 10 0 8 -3 -5 -9z m-100 -20
c17 -6 15 -9 -15 -14 -19 -4 -64 -6 -100 -4 -65 4 -65 4 20 8 75 3 80 4 40 10
l-45 7 40 1 c22 0 49 -3 60 -8z m125 6 c0 -2 -7 -7 -16 -10 -8 -3 -12 -2 -9 4
6 10 25 14 25 6z m-363 -48 c-3 -8 -6 -5 -6 6 -1 11 2 17 5 13 3 -3 4 -12 1
-19z m214 11 c85 -1 145 -5 134 -9 -18 -7 -17 -9 10 -16 17 -4 37 -7 45 -6 11
2 12 1 2 -6 -9 -6 -6 -14 13 -32 38 -35 60 -105 59 -185 0 -74 -13 -108 -60
-164 -51 -61 -94 -75 -241 -79 l-132 -4 -3 246 c-3 250 -2 270 11 261 4 -2 77
-5 162 -6z m309 -35 c0 -16 -16 -19 -25 -4 -8 13 4 32 16 25 5 -4 9 -13 9 -21z
m-70 2 c0 -3 -4 -8 -10 -11 -5 -3 -10 -1 -10 4 0 6 5 11 10 11 6 0 10 -2 10
-4z m-563 -58 c-3 -7 -5 -2 -5 12 0 14 2 19 5 13 2 -7 2 -19 0 -25z m664 5
c-12 -20 -14 -14 -5 12 4 9 9 14 11 11 3 -2 0 -13 -6 -23z m-1143 -31 c31 -24
32 -26 16 -43 -25 -27 -31 -24 -54 25 -30 67 -28 67 38 18z m1092 -49 c0 -7 5
-13 10 -13 6 0 10 -8 11 -17 0 -10 3 -13 5 -6 3 6 -2 25 -10 42 -9 16 -16 36
-16 43 1 7 10 -4 21 -24 26 -50 39 -48 39 8 0 25 4 43 9 40 4 -3 6 -17 3 -31
-2 -15 1 -37 8 -50 21 -39 8 -163 -23 -227 -26 -52 -94 -138 -110 -138 -4 0
-17 -9 -29 -20 -38 -35 -116 -55 -213 -55 -79 1 -97 4 -148 29 -33 16 -61 35
-64 43 -3 7 -8 11 -12 9 -4 -3 -13 0 -21 5 -13 8 -13 10 0 20 12 8 11 9 -7 4
-16 -4 -23 -1 -28 15 -3 11 -11 20 -16 20 -5 0 -9 11 -9 25 0 14 4 25 10 25 5
0 7 -7 4 -15 -6 -13 6 -20 29 -16 4 0 7 -5 7 -11 0 -29 35 41 41 82 l6 45 2
-44 c1 -34 4 -42 16 -37 8 3 15 1 15 -4 0 -6 -7 -10 -15 -10 -8 0 -15 -5 -15
-11 0 -6 7 -9 15 -5 11 4 15 -2 15 -24 0 -16 5 -39 10 -52 11 -23 12 -23 143
-18 135 6 175 16 215 52 12 12 22 17 22 12 0 -5 10 7 22 26 45 73 58 103 52
129 -6 25 -6 25 9 6 19 -24 22 -13 5 18 -6 12 -10 44 -9 70 1 36 -1 47 -10 41
-7 -4 -9 -3 -5 4 3 6 -3 27 -14 47 -27 49 -25 56 5 15 14 -19 25 -40 25 -47z
m-503 -55 c-2 -24 -4 -5 -4 42 0 47 2 66 4 43 2 -24 2 -62 0 -85z m552 80 c0
-28 -2 -30 -9 -13 -12 28 -12 45 0 45 6 0 10 -15 9 -32z m38 -10 c-3 -8 -6 -5
-6 6 -1 11 2 17 5 13 3 -3 4 -12 1 -19z m-560 -170 c-2 -13 -4 -3 -4 22 0 25
2 35 4 23 2 -13 2 -33 0 -45z m-130 -20 c-3 -8 -6 -5 -6 6 -1 11 2 17 5 13 3
-3 4 -12 1 -19z m-33 -38 c8 -16 11 -30 7 -30 -7 0 -31 43 -31 55 0 13 10 2
24 -25z m23 -2 c-3 -8 -6 -5 -6 6 -1 11 2 17 5 13 3 -3 4 -12 1 -19z m93 -24
c0 -3 -5 -15 -11 -26 -9 -17 -13 -18 -20 -7 -15 23 -10 39 11 39 11 0 20 -3
20 -6z"/>
<path d="M2148 2743 c6 -2 18 -2 25 0 6 3 1 5 -13 5 -14 0 -19 -2 -12 -5z"/>
<path d="M2088 2733 c7 -3 16 -2 19 1 4 3 -2 6 -13 5 -11 0 -14 -3 -6 -6z"/>
<path d="M2203 2733 c9 -2 23 -2 30 0 6 3 -1 5 -18 5 -16 0 -22 -2 -12 -5z"/>
<path d="M2741 2354 c0 -27 4 -67 9 -89 6 -28 6 -14 3 45 -6 95 -13 120 -12
44z"/>
<path d="M2761 2154 c0 -11 3 -14 6 -6 3 7 2 16 -1 19 -3 4 -6 -2 -5 -13z"/>
<path d="M2402 2290 c0 -14 2 -19 5 -12 2 6 2 18 0 25 -3 6 -5 1 -5 -13z"/>
<path d="M2045 2190 c-3 -6 1 -7 9 -4 18 7 21 14 7 14 -6 0 -13 -4 -16 -10z"/>
<path d="M2241 2084 c0 -11 3 -14 6 -6 3 7 2 16 -1 19 -3 4 -6 -2 -5 -13z"/>
<path d="M2456 2008 c-3 -13 -5 -36 -5 -53 1 -21 4 -15 10 20 8 52 6 72 -5 33z"/>
<path d="M2441 1904 c0 -11 3 -14 6 -6 3 7 2 16 -1 19 -3 4 -6 -2 -5 -13z"/>
<path d="M1403 1551 c-23 -16 -48 -40 -57 -53 -24 -34 -20 -85 9 -113 27 -28
49 -31 106 -13 22 6 42 8 45 5 11 -11 -18 -39 -58 -56 l-37 -16 27 -33 28 -33
49 33 c66 44 98 92 91 137 -8 54 -33 73 -86 68 -25 -2 -56 -8 -69 -12 -36 -12
-22 16 17 35 17 8 32 20 32 26 0 10 -41 54 -52 54 -3 0 -23 -13 -45 -29z"/>
<path d="M1201 1380 l-43 -41 46 -52 c25 -28 64 -73 87 -99 23 -27 47 -48 53
-48 6 1 28 16 49 34 l37 33 -47 59 c-81 101 -127 154 -133 154 -3 0 -25 -18
-49 -40z"/>
<path d="M1805 1130 c-3 -5 -2 -10 4 -10 5 0 13 5 16 10 3 6 2 10 -4 10 -5 0
-13 -4 -16 -10z"/>
<path d="M2100 1515 c0 -77 10 -92 36 -57 13 16 13 16 14 0 0 -12 8 -18 22
-18 20 0 21 1 4 13 -16 12 -16 13 3 13 12 0 21 -4 21 -8 0 -4 5 -8 11 -8 6 0
9 7 6 14 -4 10 -1 13 8 10 20 -8 31 41 16 72 -13 29 -48 44 -102 44 l-39 0 0
-75z m130 3 c0 -6 -6 -5 -15 2 -8 7 -15 14 -15 16 0 2 7 1 15 -2 8 -4 15 -11
15 -16z"/>
<path d="M1360 685 l0 -165 63 2 62 2 -52 3 c-38 3 -53 8 -53 19 0 10 12 14
43 13 39 -1 40 -2 12 -9 -27 -7 -27 -8 -5 -8 14 0 39 3 55 7 l30 7 -40 7 c-22
4 -53 8 -70 8 -23 2 -20 4 15 9 35 5 38 7 15 8 -29 2 -30 4 -30 51 0 27 3 44
7 38 4 -6 9 7 11 28 2 22 2 8 0 -32 -5 -76 -5 -76 45 -59 12 4 19 12 16 18 -4
6 1 8 15 3 17 -5 21 -2 22 17 1 19 3 17 8 -7 l6 -30 18 38 c11 21 21 36 24 34
2 -3 -1 -15 -7 -27 -6 -11 -9 -26 -6 -33 3 -9 5 -8 5 1 1 7 6 10 13 6 8 -5 9
-2 4 11 -4 10 -2 21 4 25 19 12 0 86 -32 124 -32 39 -77 56 -150 56 l-48 0 0
-165z m174 89 c3 -8 10 -13 15 -10 14 9 18 -47 4 -74 -12 -24 -12 -24 -19 18
-4 23 -12 42 -18 42 -6 0 -4 5 4 10 12 7 10 11 -10 19 -23 9 -23 10 -4 10 12
1 25 -6 28 -15z m-147 -166 c-2 -13 -4 -3 -4 22 0 25 2 35 4 23 2 -13 2 -33 0
-45z"/>
<path d="M1539 728 c4 -28 6 -29 9 -9 2 13 0 27 -5 32 -6 6 -7 -3 -4 -23z"/>
<path d="M1524 584 c1 -20 5 -30 13 -27 17 7 23 28 11 44 -8 11 -9 10 -4 -3 3
-10 1 -18 -4 -18 -5 0 -11 8 -13 18 -2 9 -4 3 -3 -14z"/>
<path d="M1478 573 c6 -2 18 -2 25 0 6 3 1 5 -13 5 -14 0 -19 -2 -12 -5z"/>
<path d="M1732 685 c0 -16 2 -22 5 -12 2 9 2 23 0 30 -3 6 -5 -1 -5 -18z"/>
<path d="M1756 667 c3 -10 9 -15 12 -12 3 3 0 11 -7 18 -10 9 -11 8 -5 -6z"/>
<path d="M1741 574 c0 -11 3 -14 6 -6 3 7 2 16 -1 19 -3 4 -6 -2 -5 -13z"/>
<path d="M1669 453 c-13 -16 -12 -17 4 -4 16 13 21 21 13 21 -2 0 -10 -8 -17
-17z"/>
<path d="M1220 440 c0 -11 2 -20 4 -20 2 0 6 9 9 20 3 11 1 20 -4 20 -5 0 -9
-9 -9 -20z"/>
<path d="M1990 2526 c0 -8 -5 -16 -12 -18 -7 -3 -6 -7 5 -11 11 -4 17 -1 17 9
0 9 5 12 13 8 8 -5 8 -2 -2 9 -16 21 -21 21 -21 3z"/>
<path d="M1587 2419 c7 -7 15 -10 18 -7 3 3 -2 9 -12 12 -14 6 -15 5 -6 -5z"/>
<path d="M2174 2414 c-18 -14 -18 -14 6 -3 31 14 36 19 24 19 -6 0 -19 -7 -30
-16z"/>
<path d="M1650 2380 c-9 -6 -10 -10 -3 -10 6 0 15 5 18 10 8 12 4 12 -15 0z"/>
<path d="M2125 2370 c-3 -6 1 -7 9 -4 18 7 21 14 7 14 -6 0 -13 -4 -16 -10z"/>
<path d="M1370 2338 c-57 -29 -94 -94 -87 -152 3 -21 11 -44 17 -50 9 -8 10
-4 5 15 -4 15 -2 30 4 33 5 4 8 13 5 21 -6 15 10 49 35 76 25 27 95 42 138 30
20 -6 39 -8 43 -6 4 3 14 -3 21 -13 12 -15 12 -16 -1 -7 -9 6 -8 2 2 -7 10 -9
25 -29 34 -45 l16 -28 -6 35 c-11 61 -86 120 -154 120 -15 0 -48 -10 -72 -22z"/>
<path d="M1698 2265 c20 -115 -17 -214 -102 -272 -60 -41 -117 -57 -179 -49
-96 11 -178 71 -218 160 -10 23 -19 35 -19 27 0 -20 23 -85 33 -92 5 -4 3 -17
-3 -30 -7 -13 -9 -21 -5 -17 14 13 37 -13 25 -27 -8 -10 -3 -12 22 -10 19 2
42 -5 57 -16 28 -19 145 -49 189 -48 23 0 24 1 7 8 -15 6 -11 9 22 13 23 3 57
18 77 33 19 14 37 26 41 25 3 -1 9 0 13 3 4 2 1 2 -7 0 -11 -3 -11 -1 -1 12 7
8 17 12 23 8 6 -3 7 -1 3 5 -4 7 0 22 8 34 10 13 16 17 16 9 0 -51 23 64 24
121 1 14 5 23 11 20 6 -3 4 2 -4 11 -8 11 -11 29 -8 50 3 17 3 26 0 18 -4 -10
-10 -5 -19 15 -13 28 -13 28 -6 -11z m-449 -273 c15 -22 17 -29 6 -29 -8 0
-12 4 -10 8 3 3 -2 12 -10 19 -14 12 -20 30 -11 30 3 0 14 -13 25 -28z"/>
<path d="M1741 2254 c0 -11 3 -14 6 -6 3 7 2 16 -1 19 -3 4 -6 -2 -5 -13z"/>
<path d="M1172 2190 c0 -14 2 -19 5 -12 2 6 2 18 0 25 -3 6 -5 1 -5 -13z"/>
<path d="M1591 2174 c0 -11 3 -14 6 -6 3 7 2 16 -1 19 -3 4 -6 -2 -5 -13z"/>
<path d="M2551 2154 c0 -11 3 -14 6 -6 3 7 2 16 -1 19 -3 4 -6 -2 -5 -13z"/>
<path d="M2582 2105 c0 -16 2 -22 5 -12 2 9 2 23 0 30 -3 6 -5 -1 -5 -18z"/>
<path d="M1036 2075 c2 -11 4 -25 4 -31 0 -7 6 -14 13 -17 10 -4 13 2 9 19 -2
13 -8 24 -12 24 -5 0 -10 6 -13 13 -2 6 -3 3 -1 -8z"/>
<path d="M1545 2090 c-4 -6 -16 -8 -28 -5 -16 5 -18 4 -8 -3 11 -8 11 -10 0
-15 -11 -4 -10 -6 2 -6 9 -1 24 8 34 19 10 11 15 20 12 20 -3 0 -9 -5 -12 -10z"/>
<path d="M1731 2084 c0 -11 3 -14 6 -6 3 7 2 16 -1 19 -3 4 -6 -2 -5 -13z"/>
<path d="M0 2056 c0 -22 3 -27 11 -19 8 8 8 16 0 30 -9 16 -10 14 -11 -11z"/>
<path d="M1468 2073 c7 -3 16 -2 19 1 4 3 -2 6 -13 5 -11 0 -14 -3 -6 -6z"/>
<path d="M1432 2052 c-8 -6 -2 -9 18 -9 20 0 26 3 18 9 -7 4 -15 8 -18 8 -3 0
-11 -4 -18 -8z"/>
<path d="M2581 2044 c0 -11 3 -14 6 -6 3 7 2 16 -1 19 -3 4 -6 -2 -5 -13z"/>
<path d="M2579 1975 c-6 -40 -4 -53 7 -43 3 3 4 23 2 44 l-3 39 -6 -40z"/>
<path d="M1105 1960 c-3 -5 -1 -10 4 -10 6 0 11 5 11 10 0 6 -2 10 -4 10 -3 0
-8 -4 -11 -10z"/>
<path d="M1563 1907 c-13 -5 -23 -14 -23 -19 0 -5 8 -5 18 0 9 5 24 11 32 14
7 2 10 7 5 10 -6 3 -20 1 -32 -5z"/>
<path d="M2576 1878 c3 -22 0 -38 -6 -38 -5 0 -10 -20 -10 -45 0 -59 15 -58
28 3 13 62 14 102 2 83 -6 -11 -9 -9 -13 10 -2 13 -3 7 -1 -13z"/>
<path d="M1374 1885 c8 -8 17 -15 20 -15 3 0 6 7 6 15 0 9 -9 15 -21 15 -18 0
-19 -2 -5 -15z"/>
<path d="M1326 1859 c-19 -18 -10 -28 10 -10 5 5 32 6 60 2 29 -4 60 -4 70 0
12 5 -6 8 -43 8 -35 1 -63 5 -63 11 0 15 -13 11 -34 -11z"/>
<path d="M1433 1873 c9 -2 23 -2 30 0 6 3 -1 5 -18 5 -16 0 -22 -2 -12 -5z"/>
<path d="M1538 1853 c-9 -2 -19 -10 -21 -17 -4 -11 0 -12 24 -3 16 6 29 15 29
19 0 8 -4 9 -32 1z"/>
<path d="M2 1846 c8 -10 119 -38 124 -33 3 2 -17 10 -43 16 -26 7 -57 15 -68
18 -11 3 -17 2 -13 -1z"/>
<path d="M0 1551 c0 -167 4 -281 9 -281 5 0 13 -10 16 -22 16 -57 17 -57 -4
-51 -19 5 -20 0 -20 -68 0 -41 4 -76 9 -79 53 -33 159 -127 155 -138 -2 -7 0
-10 5 -7 6 4 19 -13 30 -37 11 -24 18 -35 15 -25 -3 11 -8 30 -12 45 -6 26
-15 39 -72 104 -46 53 -18 49 46 -7 l51 -45 -11 36 c-7 25 -29 50 -73 85 -62
49 -85 79 -60 79 7 0 18 -12 25 -27 10 -22 14 -24 22 -12 8 12 11 11 23 -4 23
-30 25 -5 4 58 -17 52 -20 88 -19 260 0 207 2 266 11 275 8 8 29 94 24 99 -2
3 -10 -1 -16 -7 -7 -7 -20 -12 -31 -12 -10 0 -15 -5 -12 -10 4 -7 -5 -9 -26
-5 -44 8 -50 15 -13 16 16 0 37 4 47 8 17 6 -18 23 -100 46 l-23 6 0 -280z
m80 244 c19 -7 28 -13 20 -13 -8 0 -31 6 -50 13 -19 7 -28 13 -20 13 8 0 31
-6 50 -13z m-33 -297 c-3 -8 -6 -5 -6 6 -1 11 2 17 5 13 3 -3 4 -12 1 -19z
m50 -90 c-3 -8 -6 -5 -6 6 -1 11 2 17 5 13 3 -3 4 -12 1 -19z m-18 -210 c1
-10 -3 -18 -8 -18 -11 0 -18 32 -26 115 l-5 60 19 -70 c11 -38 20 -78 20 -87z
m51 -20 c0 -5 -4 -8 -9 -8 -10 0 -32 87 -30 118 1 15 39 -92 39 -110z m-95
-19 c11 -17 -1 -21 -15 -4 -8 9 -8 15 -2 15 6 0 14 -5 17 -11z m110 -29 c3 -6
-1 -7 -9 -4 -18 7 -21 14 -7 14 6 0 13 -4 16 -10z m-110 -20 c3 -5 2 -10 -4
-10 -5 0 -13 5 -16 10 -3 6 -2 10 4 10 5 0 13 -4 16 -10z"/>
<path d="M2542 1805 c0 -16 2 -22 5 -12 2 9 2 23 0 30 -3 6 -5 -1 -5 -18z"/>
<path d="M942 1804 c-7 -8 -8 -14 -3 -14 10 0 25 19 20 25 -2 1 -10 -3 -17
-11z"/>
<path d="M818 1713 c7 -3 16 -2 19 1 4 3 -2 6 -13 5 -11 0 -14 -3 -6 -6z"/>
<path d="M960 1635 c0 -8 -5 -15 -12 -15 -6 0 -9 -2 -6 -5 8 -9 36 5 42 21 3
8 -1 14 -9 14 -8 0 -15 -7 -15 -15z"/>
<path d="M386 1628 c3 -5 10 -6 15 -3 13 9 11 12 -6 12 -8 0 -12 -4 -9 -9z"/>
<path d="M586 1622 c-2 -4 -1 -14 5 -22 7 -12 9 -10 9 8 0 23 -5 28 -14 14z"/>
<path d="M638 1619 c10 -10 92 -16 92 -8 0 4 -22 9 -50 11 -27 1 -46 0 -42 -3z"/>
<path d="M781 1614 c0 -11 3 -14 6 -6 3 7 2 16 -1 19 -3 4 -6 -2 -5 -13z"/>
<path d="M800 1616 c0 -23 16 -27 17 -5 1 10 -2 19 -8 19 -5 0 -9 -6 -9 -14z"/>
<path d="M915 1620 c3 -5 8 -10 11 -10 2 0 4 5 4 10 0 6 -5 10 -11 10 -5 0 -7
-4 -4 -10z"/>
<path d="M995 1620 c3 -5 8 -10 11 -10 2 0 4 5 4 10 0 6 -5 10 -11 10 -5 0 -7
-4 -4 -10z"/>
<path d="M471 1590 c-1 -8 19 -73 43 -145 34 -105 44 -125 48 -102 3 15 3 25
0 22 -3 -3 -14 15 -24 41 -13 33 -16 50 -8 59 7 9 7 20 0 36 -10 24 -10 23 -7
-3 6 -42 -10 -34 -18 10 -5 20 -9 42 -11 49 -1 6 -7 19 -13 30 -8 13 -10 14
-10 3z"/>
<path d="M568 1565 c-6 -30 -3 -43 8 -33 3 4 4 19 2 35 l-3 28 -7 -30z"/>
<path d="M591 1559 c0 -13 4 -33 9 -44 7 -14 8 -8 3 20 -7 46 -13 59 -12 24z"/>
<path d="M730 1575 c0 -20 63 -231 71 -240 6 -5 9 -5 9 2 0 6 3 20 6 30 5 15
4 16 -6 3 -9 -12 -10 -11 -5 6 4 14 0 24 -10 28 -8 3 -15 13 -15 21 0 9 4 14
9 11 5 -3 12 1 15 10 9 24 7 46 -4 39 -5 -3 -6 -13 -3 -23 8 -22 -1 -13 -17
17 -8 15 -8 21 -1 17 13 -8 14 4 2 23 -5 8 -14 10 -22 6 -8 -6 -11 -4 -7 6 3
8 0 23 -8 34 -8 10 -14 15 -14 10z"/>
<path d="M797 1539 c4 -13 8 -18 11 -10 2 7 -1 18 -6 23 -8 8 -9 4 -5 -13z"/>
<path d="M530 1540 c0 -5 5 -10 10 -10 6 0 10 5 10 10 0 6 -4 10 -10 10 -5 0
-10 -4 -10 -10z"/>
<path d="M825 1490 c2 -79 10 -85 12 -10 1 33 -1 62 -6 64 -4 3 -7 -22 -6 -54z"/>
<path d="M861 1543 c-1 -6 -4 -20 -7 -30 -5 -17 -5 -17 6 0 6 10 9 23 6 30 -3
9 -5 9 -5 0z"/>
<path d="M331 1524 c0 -11 3 -14 6 -6 3 7 2 16 -1 19 -3 4 -6 -2 -5 -13z"/>
<path d="M311 1484 c0 -11 3 -14 6 -6 3 7 2 16 -1 19 -3 4 -6 -2 -5 -13z"/>
<path d="M570 1474 c0 -10 5 -26 10 -34 8 -11 9 -7 4 15 -8 37 -14 45 -14 19z"/>
<path d="M330 1300 c0 -5 7 -10 15 -10 8 0 15 5 15 10 0 6 -7 10 -15 10 -8 0
-15 -4 -15 -10z"/>
<path d="M32 993 c31 -32 68 -96 68 -118 0 -15 -23 11 -55 61 -19 30 -37 54
-40 54 -11 0 -1 -77 12 -92 8 -9 16 -28 17 -41 0 -14 4 -23 8 -21 4 3 10 -11
14 -31 3 -19 11 -35 16 -35 18 0 0 62 -33 114 -16 27 -28 50 -26 53 7 7 67
-71 63 -82 -5 -15 14 -46 25 -40 5 4 9 -1 9 -9 0 -18 6 -19 35 -6 17 7 17 9 3
9 -10 1 -20 12 -24 26 -3 14 -10 22 -15 19 -5 -3 -6 -10 -3 -16 4 -7 2 -8 -4
-4 -9 5 -9 13 -1 28 6 11 8 30 5 43 -7 29 -83 125 -98 125 -7 0 4 -17 24 -37z"/>
<path d="M2576 873 c-9 -21 -36 -72 -60 -113 -24 -41 -43 -76 -41 -78 6 -6 72
68 66 74 -3 4 -1 4 6 0 15 -8 63 3 63 15 0 5 -7 9 -15 9 -20 0 -19 30 3 47 9
8 11 12 4 8 -18 -9 -26 20 -12 45 6 12 10 24 7 26 -2 3 -12 -12 -21 -33z"/>
<path d="M7 843 c-3 -5 -1 -17 4 -28 6 -17 7 -16 6 8 -1 28 -3 32 -10 20z"/>
<path d="M256 841 c-4 -6 -1 -11 6 -11 9 0 9 -3 -2 -10 -13 -9 -13 -12 3 -21
9 -6 14 -16 11 -22 -4 -7 -4 -9 0 -5 8 7 56 -38 56 -53 0 -4 11 -20 25 -35 36
-38 31 -24 -14 43 -21 32 -47 73 -58 92 -13 20 -23 29 -27 22z"/>
<path d="M31 804 c0 -11 3 -14 6 -6 3 7 2 16 -1 19 -3 4 -6 -2 -5 -13z"/>
<path d="M2725 760 c-25 -6 -20 -8 28 -9 32 0 57 3 57 9 0 11 -40 11 -85 0z"/>
<path d="M2648 753 c6 -2 18 -2 25 0 6 3 1 5 -13 5 -14 0 -19 -2 -12 -5z"/>
<path d="M2520 709 c0 -5 5 -7 10 -4 6 3 10 8 10 11 0 2 -4 4 -10 4 -5 0 -10
-5 -10 -11z"/>
<path d="M530 486 c0 -2 8 -10 18 -17 15 -13 16 -12 3 4 -13 16 -21 21 -21 13z"/>
<path d="M602 423 c18 -16 43 -38 56 -50 13 -13 30 -23 38 -23 8 0 -15 23 -51
50 -71 54 -98 68 -43 23z"/>
<path d="M720 346 c0 -13 27 -35 55 -46 16 -6 23 -14 19 -22 -4 -6 -3 -8 4 -4
6 3 23 1 38 -4 47 -18 35 -6 -24 25 -31 16 -65 36 -74 44 -10 8 -18 11 -18 7z"/>
<path d="M2064 315 c-10 -8 -14 -14 -9 -14 6 0 19 6 29 14 11 8 15 15 10 15
-6 0 -19 -7 -30 -15z"/>
<path d="M1999 283 c-1 -5 -1 -12 0 -16 1 -5 -4 -7 -11 -4 -7 2 -21 0 -32 -5
-15 -8 -16 -12 -5 -19 12 -7 11 -9 -1 -9 -9 0 -20 4 -25 9 -6 6 -33 -2 -70
-19 -40 -20 -53 -29 -37 -30 12 0 22 4 22 10 0 6 9 6 26 0 36 -14 43 -12 14 5
-25 14 -24 15 14 10 36 -4 73 7 86 25 3 4 14 12 25 18 11 6 14 12 7 12 -7 0
-10 5 -7 10 3 6 4 10 1 10 -3 0 -7 -3 -7 -7z m-75 -51 c2 -4 -5 -9 -17 -9 -17
-2 -19 0 -7 7 18 12 18 12 24 2z"/>
<path d="M891 244 c6 -8 18 -14 26 -14 20 0 8 16 -17 23 -17 4 -19 3 -9 -9z"/>
<path d="M925 220 l-20 -9 20 -2 c11 -1 28 -2 38 -1 9 1 17 -2 17 -7 0 -11 69
-36 77 -28 3 3 20 -3 39 -14 19 -10 40 -19 47 -18 7 0 3 4 -8 9 -13 5 6 7 50
5 l70 -4 -55 10 c-80 15 -83 15 -105 25 -11 4 -37 8 -57 8 -20 0 -34 4 -32 8
10 15 -53 29 -81 18z"/>
<path d="M1728 173 c6 -2 18 -2 25 0 6 3 1 5 -13 5 -14 0 -19 -2 -12 -5z"/>
<path d="M1260 141 c-22 -7 -19 -9 21 -15 26 -5 55 -6 65 -3 11 3 -1 6 -26 7
l-45 3 45 7 45 7 -40 1 c-22 0 -51 -3 -65 -7z"/>
<path d="M1488 143 c6 -2 18 -2 25 0 6 3 1 5 -13 5 -14 0 -19 -2 -12 -5z"/>
<path d="M1553 143 c9 -2 25 -2 35 0 9 3 1 5 -18 5 -19 0 -27 -2 -17 -5z"/>
<path d="M1615 140 c3 -6 20 -10 37 -10 38 0 34 5 -10 13 -21 4 -31 3 -27 -3z"/>
<path d="M1448 123 c7 -3 16 -2 19 1 4 3 -2 6 -13 5 -11 0 -14 -3 -6 -6z"/>
<path d="M1516 121 c-4 -5 3 -7 14 -4 23 6 26 13 6 13 -8 0 -17 -4 -20 -9z"/>
</g>
</svg>
